<?xml version="1.0" standalone="no"?>
<!DOCTYPE svg PUBLIC "-//W3C//DTD SVG 20010904//EN"
 "http://www.w3.org/TR/2001/REC-SVG-20010904/DTD/svg10.dtd">
<svg version="1.0" xmlns="http://www.w3.org/2000/svg"
 width="1024.000000pt" height="1024.000000pt" viewBox="0 0 1024.000000 1024.000000"
 preserveAspectRatio="xMidYMid meet">
<metadata>
Created by potrace 1.11, written by Peter Selinger 2001-2013
</metadata>
<g transform="translate(0.000000,1024.000000) scale(0.100000,-0.100000)"
fill="#000000" stroke="none">
<path d="M769 8164 c-36 -19 -86 -53 -110 -74 -24 -22 -47 -40 -51 -40 -5 0
-8 -7 -8 -16 0 -8 -4 -13 -8 -10 -17 10 -180 -263 -165 -277 2 -3 0 -14 -6
-26 -6 -12 -16 -30 -21 -41 -7 -14 -7 -20 0 -20 7 0 8 -6 0 -19 -9 -18 -20
-66 -25 -121 -2 -14 -4 -25 -5 -25 -1 0 -4 -11 -7 -25 -8 -39 -11 -3040 -3
-3040 3 0 6 -12 6 -27 0 -30 13 -134 21 -168 3 -11 6 -28 6 -37 1 -10 5 -18
10 -18 4 0 6 -4 3 -9 -14 -22 107 -282 142 -304 6 -4 12 -15 12 -22 0 -8 4
-15 9 -15 5 0 31 -22 59 -50 28 -28 55 -50 60 -50 6 0 12 -3 14 -7 4 -10 52
-39 98 -60 32 -15 211 -16 1922 -16 l1887 -1 51 24 c27 13 50 27 50 32 0 4 6
8 13 8 27 0 197 159 197 184 0 9 4 16 8 16 4 0 24 30 43 68 18 37 39 70 44 74
6 4 6 8 1 8 -5 0 -4 6 2 13 10 12 27 76 24 90 -1 4 2 7 7 7 5 0 12 19 16 43 4
23 10 49 12 57 5 22 13 69 20 125 9 76 8 2970 -1 3050 -5 39 -10 84 -11 101
-1 17 -4 35 -7 40 -3 5 -11 32 -17 59 -7 28 -16 57 -19 65 -3 8 -6 18 -7 23
-2 4 -4 9 -5 12 -1 3 -3 8 -5 13 -14 51 -18 61 -26 56 -5 -3 -9 3 -9 14 0 11
-11 36 -25 56 -13 20 -22 36 -19 36 2 0 0 6 -6 13 -39 46 -50 61 -50 69 0 5
-4 6 -10 3 -5 -3 -10 -1 -10 5 0 7 -17 26 -37 43 -20 18 -48 43 -62 57 -14 13
-28 24 -31 23 -11 -1 -50 21 -50 29 0 4 -3 7 -7 6 -5 0 -25 6 -45 15 -34 16
-190 17 -1920 17 l-1883 -1 -66 -35z m3436 -188 c22 -3 56 -7 75 -10 19 -2 54
-9 78 -14 23 -5 42 -8 42 -5 0 2 7 -3 16 -11 8 -9 20 -14 25 -11 4 3 19 -1 32
-10 13 -8 27 -12 30 -8 4 3 7 2 7 -4 0 -6 11 -14 25 -17 59 -15 207 -197 197
-243 -2 -7 1 -13 6 -13 9 0 11 -8 14 -55 1 -14 5 -25 9 -25 6 0 15 -50 25
-135 2 -16 5 -78 6 -137 2 -60 7 -108 11 -108 5 0 5 -6 0 -12 -10 -17 -10 -40
1 -55 5 -8 5 -13 0 -13 -11 0 -11 -91 0 -108 4 -7 3 -12 -1 -12 -5 0 -8 -19
-6 -42 4 -50 4 -47 0 -121 -1 -32 0 -60 4 -63 3 -2 5 -15 3 -29 -2 -14 -6 -36
-8 -50 -2 -14 1 -28 6 -31 4 -3 6 -10 2 -15 -10 -17 -12 -59 -2 -65 4 -3 6
-10 2 -15 -10 -17 -12 -59 -3 -65 5 -3 5 -13 1 -22 -4 -9 -7 -55 -5 -102 2
-47 3 -89 3 -95 0 -5 -1 -29 -3 -52 -2 -24 1 -43 6 -43 4 0 5 -6 0 -12 -10
-17 -10 -128 0 -128 5 0 5 -6 0 -12 -10 -18 -10 -70 1 -85 5 -8 5 -13 -1 -13
-5 0 -7 -28 -5 -62 4 -86 4 -108 -1 -141 -2 -15 0 -30 5 -33 4 -3 6 -10 2 -15
-10 -17 -12 -59 -2 -65 4 -3 6 -10 2 -15 -10 -17 -12 -59 -2 -65 4 -3 5 -10 2
-16 -11 -17 -12 -98 -2 -98 5 0 6 -6 1 -12 -10 -18 -10 -70 1 -85 5 -8 5 -13
-1 -13 -5 0 -8 -19 -6 -42 4 -49 4 -44 0 -118 -1 -30 1 -61 6 -67 6 -8 6 -13
0 -13 -5 0 -8 -19 -6 -42 4 -50 4 -47 0 -121 -1 -32 0 -60 4 -63 3 -2 5 -15 3
-29 -2 -14 -6 -36 -8 -50 -2 -14 1 -28 6 -31 4 -3 5 -10 1 -17 -3 -6 -8 -56
-9 -111 -2 -117 -9 -189 -26 -266 -14 -66 -15 -69 -18 -72 -1 -2 -3 -11 -5
-20 -6 -32 -65 -148 -75 -148 -5 0 -9 -4 -7 -9 4 -14 -94 -100 -135 -118 -21
-9 -38 -21 -38 -26 0 -5 -7 -7 -15 -3 -8 3 -15 0 -15 -6 0 -6 -3 -8 -7 -5 -3
4 -12 2 -20 -5 -7 -6 -16 -8 -20 -5 -3 4 -12 2 -19 -4 -7 -5 -28 -11 -48 -12
-20 -1 -36 -4 -36 -7 0 -7 -39 -12 -102 -14 -27 0 -48 -4 -48 -7 0 -8 -2900
-3 -2950 4 -20 3 -49 9 -65 12 -17 3 -43 8 -60 11 -45 9 -185 66 -185 76 0 5
-4 7 -8 4 -5 -3 -15 3 -24 12 -8 9 -24 25 -34 34 -21 18 -29 28 -61 74 -13 17
-20 34 -16 38 3 3 1 6 -6 6 -7 0 -9 5 -6 10 3 6 1 10 -5 10 -7 0 -10 7 -6 15
3 8 -2 19 -12 24 -9 6 -14 11 -10 11 3 0 0 24 -7 53 -19 72 -24 102 -32 177
-9 89 -9 2890 0 2965 3 33 9 78 13 100 3 22 7 47 8 55 1 9 4 20 8 25 4 8 18
53 22 75 5 22 43 100 49 100 4 0 7 5 7 11 0 6 6 17 14 25 8 7 16 17 18 21 9
22 123 99 161 109 4 1 9 2 12 3 3 0 7 0 8 -1 2 -2 11 3 20 11 10 7 17 10 17 6
0 -4 6 -3 13 2 6 6 28 13 47 17 19 3 46 8 60 11 14 3 57 8 95 11 39 4 71 7 72
8 6 5 2853 -3 2888 -8z"/>
<path d="M3105 6859 c-17 -4 -26 -7 -22 -8 5 0 -1 -14 -12 -30 -12 -16 -21
-31 -21 -34 0 -3 -31 -60 -70 -127 -38 -67 -70 -123 -70 -125 0 -2 -15 -30
-34 -62 -96 -165 -120 -209 -122 -222 -2 -8 -7 -17 -12 -20 -12 -8 -67 -113
-64 -123 1 -5 -2 -8 -8 -8 -5 0 -16 -15 -24 -32 -20 -44 -49 -91 -61 -100 -5
-4 -6 -8 -2 -8 5 0 0 -12 -10 -27 -10 -16 -32 -53 -48 -83 -15 -30 -31 -57
-35 -60 -3 -3 -12 -20 -19 -37 -8 -18 -18 -33 -24 -33 -6 0 -7 -3 -4 -6 3 -4
-2 -18 -13 -32 -11 -13 -17 -28 -14 -33 3 -5 1 -9 -4 -9 -5 0 -17 -18 -27 -40
-10 -22 -23 -40 -28 -40 -6 0 -7 -3 -4 -6 4 -4 -2 -19 -13 -34 -11 -16 -20
-32 -20 -38 0 -5 -7 -15 -15 -22 -8 -7 -15 -20 -15 -30 0 -10 -7 -20 -15 -24
-8 -3 -14 -9 -13 -13 3 -11 -32 -76 -46 -85 -6 -4 -7 -8 -2 -8 5 0 3 -6 -3
-14 -6 -7 -22 -33 -35 -57 -54 -100 -62 -114 -73 -127 -12 -12 -14 -19 -13
-37 1 -3 -5 -12 -12 -20 -27 -30 -33 -40 -33 -54 0 -13 29 -15 173 -15 105 -1
177 3 182 9 4 6 20 35 36 65 15 30 30 57 33 60 4 3 22 37 41 75 18 39 37 72
40 75 3 3 17 29 30 58 14 28 28 52 33 52 4 0 6 4 2 9 -3 5 0 15 7 23 7 7 24
36 38 63 13 28 29 53 35 57 5 4 7 8 3 8 -4 0 6 23 22 50 16 28 26 50 22 50 -4
0 -2 4 4 8 6 4 28 41 50 82 21 41 43 78 49 82 5 4 7 8 2 8 -4 0 4 18 18 40 14
22 22 40 18 40 -5 0 -3 4 2 8 10 7 40 60 99 176 17 33 34 63 37 66 6 5 19 36
18 45 0 3 7 13 16 21 8 9 15 22 15 30 0 8 5 14 10 14 6 0 10 8 10 19 0 10 6
23 13 29 7 6 19 27 27 47 7 19 18 35 22 35 5 0 7 4 3 9 -3 5 1 15 8 23 7 7 20
28 28 46 7 17 18 32 22 32 5 0 6 4 3 9 -3 5 3 20 14 33 11 14 16 28 13 32 -3
3 -1 6 5 6 7 0 12 6 12 13 0 7 11 29 25 48 13 20 21 39 18 43 -4 3 0 6 7 6 7
0 10 3 7 6 -4 4 2 19 13 34 11 16 20 32 20 38 0 5 11 26 25 46 13 20 21 36 17
36 -4 0 0 5 8 10 17 11 23 11 -150 13 -64 1 -129 -1 -145 -4z"/>
<path d="M1938 6838 c-30 -28 -117 -98 -122 -98 -3 0 -22 -16 -43 -35 -21 -19
-41 -35 -45 -35 -4 0 -17 -10 -30 -22 -13 -13 -36 -32 -52 -43 -16 -11 -39
-29 -51 -40 -13 -11 -33 -27 -45 -35 -12 -8 -32 -24 -44 -35 -52 -46 -76 -65
-76 -59 0 3 -11 -6 -24 -20 -13 -15 -28 -26 -34 -26 -6 0 -12 -3 -14 -8 -1 -4
-23 -23 -48 -42 -25 -18 -52 -41 -61 -49 -9 -9 -29 -25 -44 -36 -16 -11 -34
-26 -41 -32 -7 -7 -15 -13 -18 -13 -2 0 -20 -13 -38 -30 -18 -16 -39 -30 -47
-30 -8 0 -11 -3 -8 -6 3 -4 -11 -19 -32 -35 -22 -15 -43 -33 -47 -41 -4 -7 -7
-74 -7 -150 1 -150 -3 -140 73 -198 61 -47 80 -63 95 -77 8 -7 17 -13 22 -13
4 0 14 -9 21 -21 7 -12 16 -19 19 -16 3 3 15 -5 28 -19 12 -13 27 -24 33 -24
6 0 12 -4 14 -8 2 -4 23 -23 48 -42 25 -19 47 -37 50 -40 26 -26 111 -90 119
-90 6 0 11 -4 11 -8 0 -5 29 -30 65 -57 36 -27 65 -54 65 -59 0 -5 3 -7 6 -3
5 5 23 -7 58 -38 16 -15 117 -96 156 -125 18 -14 42 -33 54 -43 29 -26 80 -52
71 -36 -4 6 -8 73 -8 148 1 134 -3 165 -16 157 -4 -3 -29 15 -56 40 -28 24
-53 44 -56 44 -3 0 -15 8 -27 18 -11 9 -33 26 -48 37 -15 11 -32 25 -38 30 -6
6 -49 39 -96 75 -47 35 -86 68 -88 72 -2 4 -8 8 -14 8 -5 0 -15 6 -22 13 -7 6
-28 23 -46 37 -18 14 -42 33 -53 43 -11 9 -23 17 -26 17 -3 0 -22 14 -41 30
-43 36 -40 34 -120 95 -36 26 -67 50 -69 52 -5 3 24 29 65 59 14 10 37 28 49
39 13 11 33 27 46 35 12 8 31 23 41 33 10 9 20 17 23 17 7 0 25 15 60 48 13
12 28 22 32 22 4 0 25 16 46 35 21 19 42 35 48 35 5 0 9 5 9 12 0 6 3 9 6 5 3
-3 19 8 35 24 15 16 32 29 36 29 5 0 19 10 33 23 14 12 43 35 65 52 47 35 72
55 91 73 8 7 14 10 14 5 0 -4 7 3 16 15 8 12 20 22 26 22 6 0 18 8 27 18 9 10
24 21 34 25 10 4 15 11 12 17 -3 5 -3 10 2 10 10 0 9 83 -1 99 -4 6 -2 11 4
11 6 0 8 5 4 11 -4 6 -6 45 -6 85 1 74 -5 85 -30 62z"/>
<path d="M3493 6781 c0 -37 -3 -73 -7 -80 -4 -6 -3 -11 1 -11 5 0 7 -30 5 -67
-4 -67 -3 -68 27 -86 18 -10 42 -28 54 -40 12 -12 79 -65 147 -116 69 -52 127
-99 128 -103 2 -4 9 -8 16 -8 6 0 18 -9 26 -20 8 -11 18 -20 23 -20 5 0 14 -6
22 -12 16 -16 40 -36 90 -73 22 -16 45 -34 51 -40 6 -5 22 -17 34 -25 13 -8
30 -23 39 -32 8 -10 21 -18 27 -18 7 0 14 -3 16 -8 2 -4 23 -23 48 -42 76 -58
75 -57 43 -85 -15 -13 -31 -25 -35 -25 -5 0 -16 -8 -26 -17 -33 -32 -72 -63
-72 -58 0 3 -8 -3 -18 -12 -11 -10 -52 -43 -92 -73 -119 -90 -225 -174 -231
-183 -3 -5 -10 -9 -15 -10 -5 -1 -16 -7 -24 -14 -22 -18 -213 -165 -246 -189
l-29 -21 -1 -147 c-1 -135 7 -182 22 -142 3 9 12 16 19 16 7 0 15 4 17 8 5 12
210 172 220 172 5 0 7 4 3 9 -3 5 3 12 12 15 10 4 33 19 51 34 17 15 44 36 58
47 14 11 37 30 50 41 14 12 40 32 59 45 19 13 35 27 35 32 0 4 7 7 15 7 7 0
18 6 22 13 4 7 37 35 73 62 36 28 72 58 81 68 9 9 21 17 27 17 6 0 12 4 14 8
2 5 34 32 72 62 38 29 76 59 85 66 9 7 27 22 40 32 24 19 25 23 25 163 1 155
3 149 -59 195 -15 10 -35 26 -45 34 -11 8 -31 24 -45 35 -14 11 -40 34 -58 50
-18 17 -35 30 -38 30 -7 0 -75 52 -112 88 -17 15 -33 27 -36 27 -3 0 -20 13
-38 28 -17 15 -46 38 -64 52 -18 14 -69 54 -114 90 -45 36 -97 76 -115 90 -46
34 -78 61 -106 87 -13 12 -24 19 -24 15 0 -4 -6 0 -13 8 -7 8 -30 28 -52 45
-22 16 -46 35 -53 42 -24 23 -29 14 -29 -56z"/>
<path d="M5252 5943 l3 -2257 2291 0 c1259 -1 2301 1 2315 4 l24 5 0 2252 0
2253 -2318 0 -2317 0 2 -2257z"/>
<path d="M449 3492 c-29 -13 -69 -50 -84 -78 -13 -25 -15 -103 -15 -506 0
-360 3 -484 12 -505 16 -36 53 -73 72 -73 8 0 16 -5 18 -12 3 -9 501 -12 2231
-13 1225 0 2227 2 2227 5 0 3 10 5 23 6 38 1 51 8 84 44 20 22 34 50 38 75 3
22 5 249 3 505 l-3 465 -24 32 c-51 68 145 63 -2328 62 -1231 0 -2245 -3
-2254 -7z"/>
<path d="M5240 2905 l0 -565 2325 0 2325 0 0 565 0 565 -2325 0 -2325 0 0
-565z m4620 0 l0 -535 -2295 0 -2295 0 0 535 0 535 2295 0 2295 0 0 -535z"/>
<path d="M6255 3210 c-38 -7 -39 -21 -2 -130 16 -47 31 -96 33 -109 3 -14 8
-29 12 -35 3 -6 7 -15 8 -21 1 -5 9 -29 18 -52 8 -24 12 -43 8 -43 -4 0 -2 -4
5 -8 6 -4 13 -22 16 -41 3 -19 10 -37 14 -40 5 -3 8 -13 8 -21 -1 -8 3 -23 8
-33 4 -10 10 -27 12 -38 8 -40 32 -48 123 -40 6 1 12 8 12 16 0 8 4 23 9 33
17 32 71 188 71 205 0 9 5 17 12 17 6 0 8 3 5 6 -3 4 -1 16 5 28 7 11 12 28
13 36 1 8 17 62 35 120 46 144 46 144 -16 148 -33 2 -54 -2 -61 -10 -10 -13
-52 -139 -56 -168 -2 -8 -5 -19 -9 -25 -3 -5 -9 -26 -13 -45 -4 -19 -12 -41
-19 -49 -6 -8 -10 -15 -8 -15 2 -1 -2 -14 -9 -31 -7 -16 -11 -36 -10 -42 1 -7
-6 -13 -15 -13 -10 0 -15 3 -12 6 5 5 -9 60 -29 114 -3 8 -8 24 -10 35 -7 31
-9 38 -21 68 -7 16 -12 32 -12 37 0 14 -33 115 -42 126 -11 15 -46 21 -83 14z"/>
<path d="M7082 3213 c-4 -1 -18 -4 -32 -7 l-25 -5 0 -296 c0 -220 3 -298 12
-303 7 -4 88 -7 180 -7 l168 0 6 42 c10 76 8 77 -127 78 l-119 0 -1 73 c-1 59
2 72 15 73 9 1 59 2 113 3 53 0 100 4 104 9 12 12 12 97 1 104 -6 4 -61 7
-121 7 l-110 1 -1 53 c-2 60 -17 54 145 54 54 0 87 4 92 11 4 7 8 33 8 60 l0
47 -82 1 c-46 0 -113 1 -151 2 -37 1 -70 1 -75 0z"/>
<path d="M8525 3210 l-50 -5 2 -45 c3 -56 3 -53 0 -128 -1 -35 1 -66 5 -68 5
-3 5 -10 2 -16 -7 -10 -7 -64 0 -148 8 -108 54 -181 125 -199 59 -14 134 -13
174 4 34 14 110 75 93 75 -3 0 1 11 10 25 9 14 14 31 11 40 -4 8 -3 17 2 19 9
6 8 433 -1 442 -11 10 -98 8 -109 -3 -10 -10 -11 -46 -4 -303 2 -113 -11 -160
-52 -181 -41 -20 -90 -13 -109 16 -8 12 -17 44 -20 71 -2 26 -7 50 -9 53 -3 2
0 10 6 18 6 7 7 13 3 13 -5 0 -9 31 -9 70 0 38 4 70 8 70 5 0 5 6 1 12 -12 19
-11 102 1 110 6 5 5 8 -2 8 -7 0 -10 6 -7 13 10 27 -19 43 -71 37z"/>
<path d="M5702 3193 c-5 -10 -12 -30 -16 -45 -3 -15 -11 -40 -18 -55 -6 -15
-12 -33 -14 -40 -6 -30 -28 -89 -37 -100 -5 -7 -7 -13 -3 -13 3 0 -6 -30 -20
-67 -14 -38 -25 -69 -24 -70 0 -2 -1 -5 -1 -8 -1 -3 -2 -8 -3 -12 0 -5 -7 -28
-15 -53 -21 -70 -22 -75 -23 -80 0 -3 -4 -13 -9 -22 -12 -22 4 -31 58 -33 50
-1 74 18 78 63 5 61 15 68 107 67 91 0 108 -6 108 -36 0 -10 4 -19 9 -19 6 0
8 -8 6 -18 -6 -32 21 -54 69 -57 47 -2 66 9 60 35 -1 8 -17 58 -34 110 -17 52
-32 103 -33 113 -1 9 -5 17 -10 17 -4 0 -6 3 -3 8 2 4 -4 25 -14 47 -10 22
-16 43 -14 47 2 3 0 9 -6 13 -5 3 -10 15 -10 26 0 10 -4 27 -9 37 -6 9 -22 50
-37 90 l-27 72 -53 0 c-41 0 -55 -4 -62 -17z m98 -278 c5 -11 11 -32 14 -46 6
-26 5 -27 -47 -25 -45 2 -52 4 -49 21 2 11 4 26 4 33 1 6 5 12 10 12 4 0 7 3
6 8 -1 4 4 27 11 52 l13 45 15 -40 c8 -22 19 -49 23 -60z"/>
<path d="M7719 3203 c-7 -48 -6 -590 1 -598 5 -6 31 -11 57 -10 l48 0 5 83 c3
50 1 84 -5 86 -7 3 -7 5 0 5 6 1 9 35 9 86 -2 83 7 110 20 60 4 -14 11 -25 17
-25 6 0 7 -4 4 -10 -3 -5 -2 -10 3 -10 4 0 19 -20 31 -45 12 -25 27 -45 32
-45 6 0 8 -4 4 -9 -3 -5 2 -16 10 -24 8 -9 15 -18 15 -22 0 -4 14 -26 30 -50
17 -24 30 -46 30 -50 0 -18 30 -30 69 -30 56 0 56 0 56 213 0 104 3 162 10
162 7 0 7 3 0 8 -13 9 -14 72 -2 72 6 0 6 5 0 13 -5 6 -9 37 -8 67 3 77 1 80
-61 80 -36 0 -54 -4 -55 -12 -5 -44 -3 -64 6 -70 7 -5 7 -8 0 -8 -12 0 -14
-89 -2 -107 4 -6 3 -14 -1 -17 -5 -3 -8 -36 -7 -73 l3 -68 -24 30 c-13 17 -24
36 -24 43 0 6 -4 12 -10 12 -5 0 -10 7 -10 15 0 8 -4 15 -8 15 -5 0 -18 22
-30 48 -12 26 -32 59 -44 72 -13 14 -21 26 -18 27 3 2 -4 15 -15 29 -11 15
-20 30 -19 33 0 3 -5 12 -12 19 -13 13 -103 17 -105 5z"/>
<path d="M9237 3196 c-3 -8 -6 -104 -7 -213 0 -109 -1 -238 -1 -286 -1 -49 2
-91 6 -95 3 -4 83 -7 176 -7 144 -1 172 1 178 15 12 22 7 90 -6 98 -6 4 -61 7
-122 7 -70 -1 -111 3 -112 10 -5 55 -2 128 6 133 5 3 59 6 120 7 l110 0 2 33
c1 18 4 40 7 47 12 31 -18 40 -132 39 l-112 -2 0 54 c0 51 2 54 25 55 14 0 68
0 120 1 63 0 95 4 96 12 1 6 2 31 3 56 l1 45 -176 3 c-147 2 -178 0 -182 -12z"/>
</g>
</svg>
